HIERARCHY
ROOT Hip
{
	OFFSET 0.000000 0.000000 0.000000 
	CHANNELS 6 Xposition Yposition Zposition Xrotation Yrotation Zrotation
	JOINT LowerSpine
	{
		OFFSET 0.000000 8.345300 -5.129200 
		CHANNELS 3 Xrotation Yrotation Zrotation
		JOINT MiddleSpine
		{
			OFFSET 10.856900 0.000000 0.000000 
			CHANNELS 3 Xrotation Yrotation Zrotation
			JOINT Chest
			{
				OFFSET 15.298400 0.000000 0.000000 
				CHANNELS 3 Xrotation Yrotation Zrotation
				JOINT Neck
				{
					OFFSET 25.661800 -0.598600 0.000000 
					CHANNELS 3 Xrotation Yrotation Zrotation
					JOINT Head
					{
						OFFSET 8.882900 0.000000 0.000000 
						CHANNELS 3 Xrotation Yrotation Zrotation
						End Site
						{
							OFFSET 19.739901 0.000000 0.000000 
						}
					}
				}
				JOINT RClavicle
				{
					OFFSET 23.687799 0.000000 3.158400 
					CHANNELS 3 Xrotation Yrotation Zrotation
					JOINT RShoulder
					{
						OFFSET -15.594500 -3.948000 0.987000 
						CHANNELS 3 Xrotation Yrotation Zrotation
						JOINT RForearm
						{
							OFFSET -31.337000 0.000000 0.197400 
							CHANNELS 3 Xrotation Yrotation Zrotation
							JOINT RHand
							{
								OFFSET -26.402100 0.000000 0.000000 
								CHANNELS 3 Xrotation Yrotation Zrotation
								End Site
								{
									OFFSET -15.791900 -0.987000 0.000000 
								}
							}
						}
					}
				}
				JOINT LClavicle
				{
					OFFSET 23.687799 0.000000 -3.158400 
					CHANNELS 3 Xrotation Yrotation Zrotation
					JOINT LShoulder
					{
						OFFSET -15.594500 -3.948000 -0.987000 
						CHANNELS 3 Xrotation Yrotation Zrotation
						JOINT LForearm
						{
							OFFSET -31.337000 0.000000 -0.197400 
							CHANNELS 3 Xrotation Yrotation Zrotation
							JOINT LHand
							{
								OFFSET -26.402100 0.000000 0.000000 
								CHANNELS 3 Xrotation Yrotation Zrotation
								End Site
								{
									OFFSET -15.791900 -0.987000 0.000000 
								}
							}
						}
					}
				}
			}
		}
	}
	JOINT RThigh
	{
		OFFSET -8.882900 0.448100 0.000000 
		CHANNELS 3 Xrotation Yrotation Zrotation
		JOINT RShin
		{
			OFFSET 43.131599 0.000000 -0.493500 
			CHANNELS 3 Xrotation Yrotation Zrotation
			JOINT RFoot
			{
				OFFSET 0.000000 -44.725601 -0.404700 
				CHANNELS 3 Xrotation Yrotation Zrotation
				JOINT RToe
				{
					OFFSET 0.000000 -3.933200 12.195300 
					CHANNELS 3 Xrotation Yrotation Zrotation
					End Site
					{
						OFFSET 6.772500 0.000000 0.000000 
					}
				}
			}
		}
	}
	JOINT LThigh
	{
		OFFSET 8.882900 0.448100 0.000000 
		CHANNELS 3 Xrotation Yrotation Zrotation
		JOINT LShin
		{
			OFFSET 43.131599 0.000000 0.493500 
			CHANNELS 3 Xrotation Yrotation Zrotation
			JOINT LFoot
			{
				OFFSET 0.000000 -44.725601 0.404700 
				CHANNELS 3 Xrotation Yrotation Zrotation
				JOINT LToe
				{
					OFFSET 0.000000 -3.933200 -12.195300 
					CHANNELS 3 Xrotation Yrotation Zrotation
					End Site
					{
						OFFSET 6.772500 0.000000 0.000000 
					}
				}
			}
		}
	}
}
MOTION
Frames: 15
Frame Time: 0.016949
-12.273468 85.147942 12.106508 25.169430 -21.743546 19.170315 -89.999992 -90.000000 0.000000 -0.405176 -0.218520 0.483603 -1.340377 -0.768069 1.622038 0.000000 0.000000 0.000000 0.000000 0.000000 0.000000 89.997551 -0.121540 -88.366653 -32.121777 -34.888248 33.410297 163.001160 70.381737 -162.287979 0.000000 0.000000 0.000000 -89.999893 0.331483 -85.544991 18.542782 -38.488167 54.746689 -147.815842 -77.029625 -147.491592 0.000000 0.000000 0.000000 76.914108 74.809906 137.126846 89.479492 50.824032 90.178543 -17.370464 2.879899 2.204818 178.670105 90.000000 0.000000 -149.608917 76.803673 37.500320 -89.818298 -20.069143 90.013039 9.581214 13.010269 -7.741522 185.791824 -90.000000 0.000000 
-12.232003 85.272812 11.972223 24.687428 -20.346621 18.394409 -89.999992 -90.000000 0.000000 -0.403074 -0.268941 0.501102 -1.316009 -0.868848 1.655900 0.000000 0.000000 0.000000 0.000000 0.000000 0.000000 89.998283 -0.184110 -87.526123 -26.911453 -38.208744 36.779232 154.936432 76.178246 -154.547867 0.000000 0.000000 0.000000 -89.995560 0.256653 -86.551735 25.052334 -41.560497 54.660667 -149.950134 -75.412682 -149.535446 0.000000 0.000000 0.000000 70.773659 75.623962 143.798630 89.486809 50.399689 90.173874 -17.275387 3.122634 2.388411 178.597885 90.000000 0.000000 -149.429428 76.491470 36.646355 -89.815826 -20.339682 90.013306 9.242833 11.337670 -6.599395 185.928650 -90.000000 0.000000 
-12.134139 85.413193 11.972140 24.105192 -19.213835 17.719753 -89.999992 -90.000000 0.000000 -0.395037 -0.288552 0.514166 -1.276628 -0.900629 1.658108 0.000000 0.000000 0.000000 0.000000 0.000000 0.000000 89.999580 -0.240339 -86.770622 -21.230459 -40.236420 40.535767 132.086685 81.978172 -132.064041 0.000000 0.000000 0.000000 -89.992500 0.171951 -87.690140 32.445267 -43.591587 56.140690 -151.185135 -74.521942 -150.720306 0.000000 0.000000 0.000000 65.168938 76.015747 150.165741 89.494972 49.921165 90.168716 -17.296295 3.290345 2.489532 178.683304 90.000000 0.000000 -149.757751 76.252296 36.729836 -89.815491 -20.382729 90.013245 8.816344 10.578530 -5.972331 185.935974 -90.000000 0.000000 
-11.977175 85.531868 12.079555 23.389128 -18.029001 17.034967 -89.999992 -90.000000 0.000000 -0.364233 -0.260387 0.500038 -1.214326 -0.873505 1.625477 0.000000 0.000000 0.000000 0.000000 0.000000 0.000000 90.001244 -0.290713 -86.093628 -15.618378 -40.905571 43.893742 60.220894 83.140205 -60.640240 0.000000 0.000000 0.000000 -89.991364 0.079205 -88.935966 39.985771 -45.116013 58.104824 -151.611923 -74.448486 -151.142059 0.000000 0.000000 0.000000 60.559662 76.051651 155.859329 89.505089 49.316078 90.162407 -17.643415 3.015761 2.289565 179.116394 90.000000 0.000000 -150.409958 75.974098 37.327732 -89.815765 -20.361128 90.013084 8.491104 9.729935 -5.318627 185.873489 -90.000000 0.000000 
-11.701610 85.652443 12.175371 22.790403 -16.615686 16.389822 -89.999992 -90.000000 0.000000 -0.343238 -0.243496 0.478124 -1.127783 -0.811035 1.559609 0.000000 0.000000 0.000000 0.000000 0.000000 0.000000 90.003220 -0.337865 -85.459541 -10.355534 -40.858955 46.930237 24.127203 75.859047 -25.032721 0.000000 0.000000 0.000000 -89.992638 -0.017630 -90.236618 46.987572 -46.635262 59.809364 -151.796799 -74.617462 -151.335510 0.000000 0.000000 0.000000 54.481659 75.869461 162.881210 89.515633 48.675262 90.155891 -17.862825 2.771283 2.123086 179.473007 90.000000 0.000000 -151.503372 75.702415 38.067978 -89.814529 -20.497644 90.013184 8.203611 8.347242 -4.450245 185.939728 -90.000000 0.000000 
-11.179244 85.825417 12.189187 22.540739 -15.162142 16.018717 -89.999992 -90.000000 0.000000 -0.318888 -0.225419 0.453521 -1.022688 -0.736611 1.467918 0.000000 0.000000 0.000000 0.000000 0.000000 0.000000 90.005585 -0.384337 -84.834419 -4.568453 -39.342346 50.262951 13.937423 67.017860 -15.335345 0.000000 0.000000 0.000000 -89.996315 -0.112892 -91.516869 53.251595 -47.704903 61.386127 -152.539581 -74.222420 -152.055542 0.000000 0.000000 0.000000 46.444000 75.256340 171.419113 89.528358 47.885990 90.148186 -17.545105 2.946245 2.236019 179.490097 90.000000 0.000000 -153.490387 75.704865 39.368202 -89.813538 -20.608141 90.013268 7.851666 7.049294 -3.753480 186.031555 -90.000000 0.000000 
-10.568881 86.027893 12.160602 22.401175 -13.917036 15.747570 -89.999992 -90.000000 0.000000 -0.271017 -0.196911 0.410502 -0.911041 -0.664229 1.362741 0.000000 0.000000 0.000000 0.000000 0.000000 0.000000 90.008293 -0.430026 -84.219429 2.616033 -33.874752 54.014275 9.333435 57.980759 -11.234089 0.000000 0.000000 0.000000 -90.001869 -0.200301 -92.692917 58.294327 -48.102432 62.174393 -153.882278 -73.177780 -153.339691 0.000000 0.000000 0.000000 38.903404 74.380585 179.381119 89.544739 46.835999 90.138481 -16.883955 3.221760 2.379282 179.338699 90.000000 0.000000 -155.439117 75.900215 40.800026 -89.815636 -20.392290 90.012779 7.563688 6.060039 -3.276895 185.899567 -90.000000 0.000000 
-10.194016 86.177177 12.149718 22.141562 -13.062511 15.279785 -89.999992 -90.000000 0.000000 -0.245878 -0.183577 0.384091 -0.807930 -0.596536 1.256782 0.000000 0.000000 0.000000 0.000000 0.000000 0.000000 90.011032 -0.471302 -83.663498 9.616033 -25.423889 57.123737 6.768755 49.504864 -9.156778 0.000000 0.000000 0.000000 -90.008301 -0.274231 -93.689110 61.789429 -48.280304 61.415249 -155.285767 -71.978539 -154.676056 0.000000 0.000000 0.000000 33.285866 73.758553 185.543716 89.558365 45.951176 90.130539 -16.359526 3.340833 2.395738 179.232300 90.000000 0.000000 -155.995529 75.956802 41.189095 -89.818024 -20.147388 90.012260 7.515565 5.271195 -2.837262 185.597794 -90.000000 0.000000 
-9.988351 86.261055 12.156534 21.852766 -12.400517 14.794109 -89.999992 -90.000000 0.000000 -0.212561 -0.168259 0.351540 -0.725650 -0.529100 1.156946 0.000000 0.000000 0.000000 0.000000 0.000000 0.000000 90.013161 -0.502315 -83.245682 14.290569 -18.772457 59.679073 5.339509 42.970169 -8.119987 0.000000 0.000000 0.000000 -90.014427 -0.330763 -94.452148 64.086601 -48.554035 59.662952 -156.466263 -70.970970 -155.800201 0.000000 0.000000 0.000000 29.666294 73.256683 189.622391 89.565002 45.539680 90.126511 -16.286476 3.549922 2.496811 179.339386 90.000000 0.000000 -156.065735 75.920639 41.043037 -89.816254 -20.338844 90.012497 7.588154 4.613344 -2.469972 185.377319 -90.000000 0.000000 
-9.628886 86.359734 12.152949 21.600113 -11.445392 14.489614 -89.999992 -90.000000 0.000000 -0.194381 -0.141920 0.322282 -0.668781 -0.457024 1.061739 0.000000 0.000000 0.000000 0.000000 0.000000 0.000000 90.014008 -0.517553 -83.040428 16.895382 -15.678706 62.578217 4.576427 38.793037 -7.617725 0.000000 0.000000 0.000000 -90.019333 -0.368357 -94.960442 65.603729 -49.042664 57.686008 -157.526352 -70.068764 -156.809662 0.000000 0.000000 0.000000 27.774050 72.403465 -168.101913 89.570366 45.215446 90.123207 -16.391977 3.685356 2.586700 179.580597 90.000000 0.000000 -156.759354 76.301590 41.253662 -89.812004 -20.788864 90.013237 7.597646 4.121790 -2.272213 185.155746 -90.000000 0.000000 
-9.046923 86.512405 12.095366 21.364038 -10.179107 14.251068 -89.999992 -90.000000 0.000000 -0.191029 -0.106722 0.291859 -0.634749 -0.379469 0.965686 0.000000 0.000000 0.000000 0.000000 0.000000 0.000000 90.013184 -0.514177 -83.086235 18.787146 -13.936563 65.923103 4.142354 36.186684 -7.351125 0.000000 0.000000 0.000000 -90.022514 -0.388119 -95.228180 66.486954 -49.702927 55.427605 -158.544846 -69.181335 -157.778305 0.000000 0.000000 0.000000 27.174454 71.315491 -167.021912 89.579811 44.602203 90.117706 -16.173376 3.357341 2.371680 179.674500 90.000000 0.000000 -156.763687 77.574081 40.664463 -89.808250 -21.183582 90.013939 7.470810 4.306903 -2.380219 184.982361 -90.000000 0.000000 
-8.428758 86.642082 11.971781 21.103193 -8.993503 13.896812 -89.999992 -90.000000 0.000000 -0.185925 -0.086654 0.264692 -0.619584 -0.300031 0.868310 0.000000 0.000000 0.000000 0.000000 0.000000 0.000000 90.010872 -0.493175 -83.369568 20.330688 -12.201120 69.201302 3.899239 34.663456 -7.207922 0.000000 0.000000 0.000000 -90.024101 -0.393492 -95.301407 67.031319 -50.367397 53.031548 -159.318542 -68.633209 -158.520844 0.000000 0.000000 0.000000 27.427818 70.440842 -166.677216 89.591393 43.830742 90.111107 -15.749207 2.878373 2.034250 179.645203 90.000000 0.000000 -154.673187 79.334938 37.987549 -89.803482 -21.679209 90.014915 7.320122 5.180946 -2.754310 185.120789 -90.000000 0.000000 
-7.891193 86.646866 11.811797 20.773911 -7.940387 13.330177 -89.999992 -90.000000 0.000000 -0.181698 -0.070852 0.241399 -0.623335 -0.223895 0.780127 0.000000 0.000000 0.000000 0.000000 0.000000 0.000000 90.007759 -0.459298 -83.826195 21.581982 -10.745646 72.015732 3.799970 34.049801 -7.149713 0.000000 0.000000 0.000000 -90.024315 -0.387532 -95.221321 67.799667 -50.961777 51.236156 -159.915817 -68.350769 -159.101593 0.000000 0.000000 0.000000 27.940613 69.867706 -166.607224 89.598801 43.351395 90.106773 -15.464017 2.547514 1.791987 179.591492 90.000000 0.000000 -151.626007 80.561295 34.256287 -89.795189 -22.532335 90.016800 7.527101 5.653957 -2.966410 185.258011 -90.000000 0.000000 
-7.347528 86.517242 11.612412 20.468086 -6.824327 12.671562 -89.999992 -90.000000 0.000000 -0.201096 -0.038917 0.208391 -0.650208 -0.153612 0.719604 0.000000 0.000000 0.000000 0.000000 0.000000 0.000000 90.004631 -0.419669 -84.359772 22.558514 -9.226790 74.612259 3.743367 33.714226 -7.115980 0.000000 0.000000 0.000000 -90.024025 -0.377455 -95.085587 69.114410 -51.242630 50.089722 -160.869705 -67.496849 -160.007553 0.000000 0.000000 0.000000 28.477757 69.361954 -166.873230 89.597969 43.467541 90.106766 -15.189898 2.151348 1.528259 179.300400 90.000000 0.000000 -149.835510 81.100533 31.470798 -89.782669 -23.799086 90.019966 8.296648 5.260311 -2.834748 184.978134 -90.000000 0.000000 
-6.666164 86.313019 11.366029 20.318022 -5.754092 12.166806 -89.999992 -90.000000 0.000000 -0.205140 -0.026421 0.200971 -0.703924 -0.085637 0.702694 0.000000 0.000000 0.000000 0.000000 0.000000 0.000000 90.002052 -0.381662 -84.871246 23.136818 -7.138393 77.291664 3.679173 33.324512 -7.078322 0.000000 0.000000 0.000000 -90.023376 -0.364286 -94.908051 71.035172 -50.821613 49.236465 -162.290604 -65.772293 -161.332306 0.000000 0.000000 0.000000 28.929493 68.698441 -167.488937 89.592354 43.923409 90.109352 -14.833267 1.806820 1.307870 178.857010 90.000000 0.000000 -149.595444 81.540665 29.973766 -89.767601 -25.289793 90.024208 9.511815 4.745445 -2.686178 184.226852 -90.000000 0.000000 
